<svg xmlns:xlink="http://www.w3.org/1999/xlink" width="19.57ex" height="9.352ex" style="vertical-align: -1.671ex;" viewBox="0 -1293.7 4213 2013.3" role="img" focusable="false" xmlns="http://www.w3.org/2000/svg"><defs><path stroke-width="1" id="E2-MJMAIN-7C" d="M139 -249H137Q125 -249 119 -235V251L120 737Q130 750 139 750Q152 750 159 735V-235Q151 -249 141 -249H139Z"></path><path stroke-width="1" id="E2-MJMATHI-4E" d="M234 637Q231 637 226 637Q201 637 196 638T191 649Q191 676 202 682Q204 683 299 683Q376 683 387 683T401 677Q612 181 616 168L670 381Q723 592 723 606Q723 633 659 637Q635 637 635 648Q635 650 637 660Q641 676 643 679T653 683Q656 683 684 682T767 680Q817 680 843 681T873 682Q888 682 888 672Q888 650 880 642Q878 637 858 637Q787 633 769 597L620 7Q618 0 599 0Q585 0 582 2Q579 5 453 305L326 604L261 344Q196 88 196 79Q201 46 268 46H278Q284 41 284 38T282 19Q278 6 272 0H259Q228 2 151 2Q123 2 100 2T63 2T46 1Q31 1 31 10Q31 14 34 26T39 40Q41 46 62 46Q130 49 150 85Q154 91 221 362L289 634Q287 635 234 637Z"></path><path stroke-width="1" id="E2-MJMATHI-69" d="M184 600Q184 624 203 642T247 661Q265 661 277 649T290 619Q290 596 270 577T226 557Q211 557 198 567T184 600ZM21 287Q21 295 30 318T54 369T98 420T158 442Q197 442 223 419T250 357Q250 340 236 301T196 196T154 83Q149 61 149 51Q149 26 166 26Q175 26 185 29T208 43T235 78T260 137Q263 149 265 151T282 153Q302 153 302 143Q302 135 293 112T268 61T223 11T161 -11Q129 -11 102 10T74 74Q74 91 79 106T122 220Q160 321 166 341T173 380Q173 404 156 404H154Q124 404 99 371T61 287Q60 286 59 284T58 281T56 279T53 278T49 278T41 278H27Q21 284 21 287Z"></path><path stroke-width="1" id="E2-MJMAIN-2212" d="M84 237T84 250T98 270H679Q694 262 694 250T679 230H98Q84 237 84 250Z"></path><path stroke-width="1" id="E2-MJMAIN-2B" d="M56 237T56 250T70 270H369V420L370 570Q380 583 389 583Q402 583 409 568V270H707Q722 262 722 250T707 230H409V-68Q401 -82 391 -82H389H387Q375 -82 369 -68V230H70Q56 237 56 250Z"></path><path stroke-width="1" id="E2-MJMAIN-31" d="M213 578L200 573Q186 568 160 563T102 556H83V602H102Q149 604 189 617T245 641T273 663Q275 666 285 666Q294 666 302 660V361L303 61Q310 54 315 52T339 48T401 46H427V0H416Q395 3 257 3Q121 3 100 0H88V46H114Q136 46 152 46T177 47T193 50T201 52T207 57T213 61V578Z"></path></defs><g stroke="currentColor" fill="currentColor" stroke-width="0" transform="matrix(1 0 0 -1 0 0)"><g transform="translate(120,0)"><rect stroke="none" width="3973" height="60" x="0" y="220"></rect><g transform="translate(60,631)"><use transform="scale(0.707)" xlink:href="#E2-MJMAIN-7C"></use><g transform="translate(446,0)"><use transform="scale(0.707)" xlink:href="#E2-MJMATHI-4E" x="0" y="0"></use><use transform="scale(0.574)" xlink:href="#E2-MJMATHI-69" x="989" y="-238"></use></g><use transform="scale(0.707)" xlink:href="#E2-MJMAIN-2212" x="1816" y="0"></use><g transform="translate(1834,0)"><use transform="scale(0.707)" xlink:href="#E2-MJMATHI-4E" x="0" y="0"></use><g transform="translate(568,-140)"><use transform="scale(0.574)" xlink:href="#E2-MJMATHI-69" x="0" y="0"></use><use transform="scale(0.574)" xlink:href="#E2-MJMAIN-2B" x="345" y="0"></use><use transform="scale(0.574)" xlink:href="#E2-MJMAIN-31" x="1124" y="0"></use></g></g><use transform="scale(0.707)" xlink:href="#E2-MJMAIN-7C" x="5170" y="-1"></use></g><g transform="translate(381,-429)"><use transform="scale(0.707)" xlink:href="#E2-MJMATHI-4E" x="0" y="0"></use><use transform="scale(0.574)" xlink:href="#E2-MJMATHI-69" x="989" y="-238"></use><use transform="scale(0.707)" xlink:href="#E2-MJMAIN-2B" x="1183" y="0"></use><g transform="translate(1637,0)"><use transform="scale(0.707)" xlink:href="#E2-MJMATHI-4E" x="0" y="0"></use><g transform="translate(568,-140)"><use transform="scale(0.574)" xlink:href="#E2-MJMATHI-69" x="0" y="0"></use><use transform="scale(0.574)" xlink:href="#E2-MJMAIN-2B" x="345" y="0"></use><use transform="scale(0.574)" xlink:href="#E2-MJMAIN-31" x="1124" y="0"></use></g></g></g></g></g></svg>